<?xml version="1.0" encoding="windows-1252" standalone="no"?>
<svg xmlns="http://www.w3.org/2000/svg" xmlns:xlink="http://www.w3.org/1999/xlink" contentStyleType="text/css" height="606px" preserveAspectRatio="none" style="width:3584px;height:606px;background:#1B1B1B;" version="1.1" viewBox="0 0 3584 606" width="3584px" zoomAndPan="magnify"><defs/><g><rect fill="#1B1B1B" height="606" style="stroke:none;stroke-width:1.0;" width="3584" x="0" y="0"/><!--class SqlDbFactory--><g id="elem_SqlDbFactory"><rect codeLine="1" fill="#313139" height="96.8906" id="SqlDbFactory" rx="2.5" ry="2.5" style="stroke:#E7E7E7;stroke-width:0.5;" width="348" x="7" y="280.5"/><ellipse cx="128.25" cy="296.5" fill="#2E5233" rx="11" ry="11" style="stroke:#E7E7E7;stroke-width:1.0;"/><path d="M130.5938,292.1719 C129.6563,291.7344 129.0625,291.5938 128.1875,291.5938 C125.5625,291.5938 123.5625,293.6719 123.5625,296.3906 L123.5625,297.5156 C123.5625,300.0938 125.6719,301.9844 128.5625,301.9844 C129.7813,301.9844 130.9375,301.6875 131.6875,301.1406 C132.2656,300.7344 132.5938,300.2813 132.5938,299.8906 C132.5938,299.4375 132.2031,299.0469 131.7344,299.0469 C131.5156,299.0469 131.3125,299.125 131.125,299.3125 C130.6719,299.7969 130.6719,299.7969 130.4844,299.8906 C130.0625,300.1563 129.375,300.2813 128.6094,300.2813 C126.5625,300.2813 125.2656,299.1875 125.2656,297.4844 L125.2656,296.3906 C125.2656,294.6094 126.5156,293.2969 128.25,293.2969 C128.8281,293.2969 129.4375,293.4531 129.9063,293.7031 C130.3906,293.9844 130.5625,294.2031 130.6563,294.6094 C130.7188,295.0156 130.75,295.1406 130.8906,295.2656 C131.0313,295.4063 131.2656,295.5156 131.4844,295.5156 C131.75,295.5156 132.0156,295.375 132.1875,295.1563 C132.2969,295 132.3281,294.8125 132.3281,294.3906 L132.3281,292.9688 C132.3281,292.5313 132.3125,292.4063 132.2188,292.25 C132.0625,291.9844 131.7813,291.8438 131.4844,291.8438 C131.1875,291.8438 130.9844,291.9375 130.7656,292.25 L130.5938,292.1719 Z " fill="#FFFFFF"/><text fill="#FFFFFF" font-family="sans-serif" font-size="14" lengthAdjust="spacing" textLength="97" x="148.75" y="301.3467">SqlDbFactory</text><line style="stroke:#E7E7E7;stroke-width:0.5;" x1="8" x2="354" y1="312.5" y2="312.5"/><rect fill="none" height="6" style="stroke:#C82930;stroke-width:1.0;" width="6" x="15" y="323.1484"/><text fill="#FFFFFF" font-family="sans-serif" font-size="14" lengthAdjust="spacing" textLength="113" x="27" y="329.4951">logger : ILogger</text><line style="stroke:#E7E7E7;stroke-width:0.5;" x1="8" x2="354" y1="336.7969" y2="336.7969"/><ellipse cx="18" cy="350.4453" fill="#84BE84" rx="3" ry="3" style="stroke:#038048;stroke-width:1.0;"/><text fill="#FFFFFF" font-family="sans-serif" font-size="14" lengthAdjust="spacing" textLength="212" x="27" y="353.792">SqlDbFactory(logger:ILogger)</text><ellipse cx="18" cy="366.7422" fill="#84BE84" rx="3" ry="3" style="stroke:#038048;stroke-width:1.0;"/><text fill="#FFFFFF" font-family="sans-serif" font-size="14" lengthAdjust="spacing" textLength="322" x="27" y="370.0889">«override» CreateConnection() : IConnection</text></g><!--class DatabaseConnectionFactory--><g id="elem_DatabaseConnectionFactory"><rect codeLine="8" fill="#313139" height="64.2969" id="DatabaseConnectionFactory" rx="2.5" ry="2.5" style="stroke:#E7E7E7;stroke-width:0.5;" width="263" x="432.5" y="42.5"/><ellipse cx="460.55" cy="58.5" fill="#2A5D60" rx="11" ry="11" style="stroke:#E7E7E7;stroke-width:1.0;"/><path d="M462.6281,60.3125 L463.0188,61.2969 L462.6281,61.2969 C462.175,61.2969 462.0656,61.3125 461.9094,61.4219 C461.6594,61.5781 461.5031,61.8594 461.5031,62.1563 C461.5031,62.4219 461.6438,62.6719 461.8625,62.8281 C462.0031,62.9531 462.2063,63 462.6281,63 L464.9875,63 C465.3469,63 465.5656,62.9688 465.7063,62.875 C465.9563,62.7344 466.1125,62.4375 466.1125,62.1563 C466.1125,61.875 465.9719,61.625 465.7531,61.4688 C465.5813,61.3281 465.425,61.2969 464.9563,61.2969 L461.5656,53.0938 L457.8938,53.0938 C457.4406,53.0938 457.3156,53.1094 457.1594,53.2031 C456.9094,53.375 456.7531,53.6563 456.7531,53.9375 C456.7531,54.2188 456.8938,54.4688 457.1125,54.6406 C457.2844,54.75 457.4563,54.7813 457.8938,54.7813 L458.9719,54.7813 L456.3313,61.2969 C455.9094,61.2969 455.7531,61.3125 455.5969,61.4219 C455.3469,61.5781 455.1906,61.8594 455.1906,62.1563 C455.1906,62.7188 455.5656,63 456.3156,63 L458.5813,63 C458.9406,63 459.1594,62.9688 459.2844,62.875 C459.55,62.7344 459.6906,62.4375 459.6906,62.1563 C459.6906,61.875 459.5656,61.625 459.3469,61.4531 C459.175,61.3281 459.0344,61.2969 458.5813,61.2969 L458.1906,61.2969 L458.5813,60.3125 L462.6281,60.3125 Z M461.925,58.6094 L459.2531,58.6094 L460.5969,55.3438 L461.925,58.6094 Z " fill="#FFFFFF"/><text fill="#FFFFFF" font-family="sans-serif" font-size="14" font-style="italic" lengthAdjust="spacing" textLength="202" x="477.45" y="63.3467">DatabaseConnectionFactory</text><line style="stroke:#E7E7E7;stroke-width:0.5;" x1="433.5" x2="694.5" y1="74.5" y2="74.5"/><line style="stroke:#E7E7E7;stroke-width:0.5;" x1="433.5" x2="694.5" y1="82.5" y2="82.5"/><ellipse cx="443.5" cy="96.1484" fill="#84BE84" rx="3" ry="3" style="stroke:#038048;stroke-width:1.0;"/><text fill="#FFFFFF" font-family="sans-serif" font-size="14" font-style="italic" lengthAdjust="spacing" textLength="237" x="452.5" y="99.4951">CreateConnection() : IConnection</text></g><!--class IConnection--><g id="elem_IConnection"><rect codeLine="11" fill="#313139" height="129.4844" id="IConnection" rx="2.5" ry="2.5" style="stroke:#E7E7E7;stroke-width:0.5;" width="317" x="1706.5" y="10"/><ellipse cx="1818.25" cy="26" fill="#352866" rx="11" ry="11" style="stroke:#E7E7E7;stroke-width:1.0;"/><path d="M1819.2031,22.7813 L1820.9219,22.7813 C1821.3125,22.7813 1821.5,22.75 1821.625,22.6719 C1821.8906,22.5156 1822.0313,22.2344 1822.0313,21.9375 C1822.0313,21.6719 1821.9219,21.4063 1821.6875,21.2344 C1821.5156,21.125 1821.375,21.0938 1820.9219,21.0938 L1815.7813,21.0938 C1815.3438,21.0938 1815.2188,21.1094 1815.0625,21.2031 C1814.8125,21.3594 1814.6563,21.6563 1814.6563,21.9375 C1814.6563,22.2188 1814.7969,22.4688 1815.0156,22.6406 C1815.1719,22.75 1815.3594,22.7813 1815.7813,22.7813 L1817.5,22.7813 L1817.5,29.2969 L1815.7813,29.2969 C1815.3438,29.2969 1815.2188,29.3125 1815.0625,29.4219 C1814.8125,29.5781 1814.6563,29.8594 1814.6563,30.1563 C1814.6563,30.4063 1814.7969,30.6719 1815.0156,30.8281 C1815.1719,30.9531 1815.375,31 1815.7813,31 L1820.9219,31 C1821.6719,31 1822.0313,30.7188 1822.0313,30.1563 C1822.0313,29.875 1821.9219,29.625 1821.6875,29.4531 C1821.5156,29.3281 1821.375,29.2969 1820.9219,29.2969 L1819.2031,29.2969 L1819.2031,22.7813 Z " fill="#FFFFFF"/><text fill="#FFFFFF" font-family="sans-serif" font-size="14" font-style="italic" lengthAdjust="spacing" textLength="85" x="1838.75" y="30.8467">IConnection</text><line style="stroke:#E7E7E7;stroke-width:0.5;" x1="1707.5" x2="2022.5" y1="42" y2="42"/><line style="stroke:#E7E7E7;stroke-width:0.5;" x1="1707.5" x2="2022.5" y1="50" y2="50"/><text fill="#FFFFFF" font-family="sans-serif" font-size="14" lengthAdjust="spacing" textLength="286" x="1712.5" y="66.9951">Connect(connectionString:string) : void</text><text fill="#FFFFFF" font-family="sans-serif" font-size="14" lengthAdjust="spacing" textLength="134" x="1712.5" y="83.292">Disconnect() : void</text><text fill="#FFFFFF" font-family="sans-serif" font-size="14" lengthAdjust="spacing" textLength="219" x="1712.5" y="99.5889">Execute(command:string) : int</text><text fill="#FFFFFF" font-family="sans-serif" font-size="14" lengthAdjust="spacing" textLength="208" x="1712.5" y="115.8857">Execute(command:string) : T</text><text fill="#FFFFFF" font-family="sans-serif" font-size="14" lengthAdjust="spacing" textLength="305" x="1712.5" y="132.1826">ExecuteAsync(command:string) : Task&lt;T&gt;</text></g><!--class IDbCommand`2--><g id="elem_IDbCommand`2"><rect codeLine="18" fill="#313139" height="129.4844" id="IDbCommand`2" rx="2.5" ry="2.5" style="stroke:#E7E7E7;stroke-width:0.5;" width="262" x="3024" y="10"/><ellipse cx="3075.25" cy="26" fill="#352866" rx="11" ry="11" style="stroke:#E7E7E7;stroke-width:1.0;"/><path d="M3076.2031,22.7813 L3077.9219,22.7813 C3078.3125,22.7813 3078.5,22.75 3078.625,22.6719 C3078.8906,22.5156 3079.0313,22.2344 3079.0313,21.9375 C3079.0313,21.6719 3078.9219,21.4063 3078.6875,21.2344 C3078.5156,21.125 3078.375,21.0938 3077.9219,21.0938 L3072.7813,21.0938 C3072.3438,21.0938 3072.2188,21.1094 3072.0625,21.2031 C3071.8125,21.3594 3071.6563,21.6563 3071.6563,21.9375 C3071.6563,22.2188 3071.7969,22.4688 3072.0156,22.6406 C3072.1719,22.75 3072.3594,22.7813 3072.7813,22.7813 L3074.5,22.7813 L3074.5,29.2969 L3072.7813,29.2969 C3072.3438,29.2969 3072.2188,29.3125 3072.0625,29.4219 C3071.8125,29.5781 3071.6563,29.8594 3071.6563,30.1563 C3071.6563,30.4063 3071.7969,30.6719 3072.0156,30.8281 C3072.1719,30.9531 3072.375,31 3072.7813,31 L3077.9219,31 C3078.6719,31 3079.0313,30.7188 3079.0313,30.1563 C3079.0313,29.875 3078.9219,29.625 3078.6875,29.4531 C3078.5156,29.3281 3078.375,29.2969 3077.9219,29.2969 L3076.2031,29.2969 L3076.2031,22.7813 Z " fill="#FFFFFF"/><text fill="#FFFFFF" font-family="sans-serif" font-size="14" font-style="italic" lengthAdjust="spacing" textLength="114" x="3095.75" y="30.8467">IDbCommand`2</text><rect fill="#FFFFFF" height="15.9688" style="stroke:#E7E7E7;stroke-width:1.0;stroke-dasharray:2.0,2.0;" width="35" x="3254" y="7"/><text fill="#000000" font-family="sans-serif" font-size="12" font-style="italic" lengthAdjust="spacing" textLength="33" x="3255" y="19.1387">T,Key</text><line style="stroke:#E7E7E7;stroke-width:0.5;" x1="3025" x2="3285" y1="42" y2="42"/><line style="stroke:#E7E7E7;stroke-width:0.5;" x1="3025" x2="3285" y1="50" y2="50"/><text fill="#FFFFFF" font-family="sans-serif" font-size="14" lengthAdjust="spacing" textLength="131" x="3030" y="66.9951">Insert(data:T) : int</text><text fill="#FFFFFF" font-family="sans-serif" font-size="14" lengthAdjust="spacing" textLength="250" x="3030" y="83.292">Update(key:Key, newData:T) : bool</text><text fill="#FFFFFF" font-family="sans-serif" font-size="14" lengthAdjust="spacing" textLength="162" x="3030" y="99.5889">Delete(key:Key) : bool</text><text fill="#FFFFFF" font-family="sans-serif" font-size="14" lengthAdjust="spacing" textLength="214" x="3030" y="115.8857">GetAsync(key:Key) : Task&lt;T&gt;</text><text fill="#FFFFFF" font-family="sans-serif" font-size="14" lengthAdjust="spacing" textLength="125" x="3030" y="132.1826">GetAll() : List&lt;T&gt;</text></g><!--class ILogger--><g id="elem_ILogger"><rect codeLine="25" fill="#313139" height="64.2969" id="ILogger" rx="2.5" ry="2.5" style="stroke:#E7E7E7;stroke-width:0.5;" width="256" x="3321" y="42.5"/><ellipse cx="3417.75" cy="58.5" fill="#352866" rx="11" ry="11" style="stroke:#E7E7E7;stroke-width:1.0;"/><path d="M3418.7031,55.2813 L3420.4219,55.2813 C3420.8125,55.2813 3421,55.25 3421.125,55.1719 C3421.3906,55.0156 3421.5313,54.7344 3421.5313,54.4375 C3421.5313,54.1719 3421.4219,53.9063 3421.1875,53.7344 C3421.0156,53.625 3420.875,53.5938 3420.4219,53.5938 L3415.2813,53.5938 C3414.8438,53.5938 3414.7188,53.6094 3414.5625,53.7031 C3414.3125,53.8594 3414.1563,54.1563 3414.1563,54.4375 C3414.1563,54.7188 3414.2969,54.9688 3414.5156,55.1406 C3414.6719,55.25 3414.8594,55.2813 3415.2813,55.2813 L3417,55.2813 L3417,61.7969 L3415.2813,61.7969 C3414.8438,61.7969 3414.7188,61.8125 3414.5625,61.9219 C3414.3125,62.0781 3414.1563,62.3594 3414.1563,62.6563 C3414.1563,62.9063 3414.2969,63.1719 3414.5156,63.3281 C3414.6719,63.4531 3414.875,63.5 3415.2813,63.5 L3420.4219,63.5 C3421.1719,63.5 3421.5313,63.2188 3421.5313,62.6563 C3421.5313,62.375 3421.4219,62.125 3421.1875,61.9531 C3421.0156,61.8281 3420.875,61.7969 3420.4219,61.7969 L3418.7031,61.7969 L3418.7031,55.2813 Z " fill="#FFFFFF"/><text fill="#FFFFFF" font-family="sans-serif" font-size="14" font-style="italic" lengthAdjust="spacing" textLength="54" x="3438.25" y="63.3467">ILogger</text><line style="stroke:#E7E7E7;stroke-width:0.5;" x1="3322" x2="3576" y1="74.5" y2="74.5"/><line style="stroke:#E7E7E7;stroke-width:0.5;" x1="3322" x2="3576" y1="82.5" y2="82.5"/><text fill="#FFFFFF" font-family="sans-serif" font-size="14" lengthAdjust="spacing" textLength="244" x="3327" y="99.4951">LogDebug(command:string) : void</text></g><!--class MongoDbCommand`2--><g id="elem_MongoDbCommand`2"><rect codeLine="28" fill="#313139" height="227.2656" id="MongoDbCommand`2" rx="2.5" ry="2.5" style="stroke:#E7E7E7;stroke-width:0.5;" width="351" x="2791.5" y="215.5"/><ellipse cx="2865.75" cy="231.5" fill="#2E5233" rx="11" ry="11" style="stroke:#E7E7E7;stroke-width:1.0;"/><path d="M2868.0938,227.1719 C2867.1563,226.7344 2866.5625,226.5938 2865.6875,226.5938 C2863.0625,226.5938 2861.0625,228.6719 2861.0625,231.3906 L2861.0625,232.5156 C2861.0625,235.0938 2863.1719,236.9844 2866.0625,236.9844 C2867.2813,236.9844 2868.4375,236.6875 2869.1875,236.1406 C2869.7656,235.7344 2870.0938,235.2813 2870.0938,234.8906 C2870.0938,234.4375 2869.7031,234.0469 2869.2344,234.0469 C2869.0156,234.0469 2868.8125,234.125 2868.625,234.3125 C2868.1719,234.7969 2868.1719,234.7969 2867.9844,234.8906 C2867.5625,235.1563 2866.875,235.2813 2866.1094,235.2813 C2864.0625,235.2813 2862.7656,234.1875 2862.7656,232.4844 L2862.7656,231.3906 C2862.7656,229.6094 2864.0156,228.2969 2865.75,228.2969 C2866.3281,228.2969 2866.9375,228.4531 2867.4063,228.7031 C2867.8906,228.9844 2868.0625,229.2031 2868.1563,229.6094 C2868.2188,230.0156 2868.25,230.1406 2868.3906,230.2656 C2868.5313,230.4063 2868.7656,230.5156 2868.9844,230.5156 C2869.25,230.5156 2869.5156,230.375 2869.6875,230.1563 C2869.7969,230 2869.8281,229.8125 2869.8281,229.3906 L2869.8281,227.9688 C2869.8281,227.5313 2869.8125,227.4063 2869.7188,227.25 C2869.5625,226.9844 2869.2813,226.8438 2868.9844,226.8438 C2868.6875,226.8438 2868.4844,226.9375 2868.2656,227.25 L2868.0938,227.1719 Z " fill="#FFFFFF"/><text fill="#FFFFFF" font-family="sans-serif" font-size="14" lengthAdjust="spacing" textLength="157" x="2886.25" y="236.3467">MongoDbCommand`2</text><rect fill="#FFFFFF" height="15.9688" style="stroke:#E7E7E7;stroke-width:1.0;stroke-dasharray:2.0,2.0;" width="35" x="3110.5" y="212.5"/><text fill="#000000" font-family="sans-serif" font-size="12" font-style="italic" lengthAdjust="spacing" textLength="33" x="3111.5" y="224.6387">T,Key</text><line style="stroke:#E7E7E7;stroke-width:0.5;" x1="2792.5" x2="3141.5" y1="247.5" y2="247.5"/><rect fill="none" height="6" style="stroke:#C82930;stroke-width:1.0;" width="6" x="2799.5" y="258.1484"/><text fill="#FFFFFF" font-family="sans-serif" font-size="14" lengthAdjust="spacing" textLength="181" x="2811.5" y="264.4951">connection : IConnection</text><ellipse cx="2802.5" cy="277.4453" fill="none" rx="3" ry="3" style="stroke:#038048;stroke-width:1.0;"/><text fill="#FFFFFF" font-family="sans-serif" font-size="14" lengthAdjust="spacing" textLength="272" x="2811.5" y="280.792">«virtual» GetKey : string «get» = "_id"</text><line style="stroke:#E7E7E7;stroke-width:0.5;" x1="2792.5" x2="3141.5" y1="288.0938" y2="288.0938"/><ellipse cx="2802.5" cy="301.7422" fill="#84BE84" rx="3" ry="3" style="stroke:#038048;stroke-width:1.0;"/><text fill="#FFFFFF" font-family="sans-serif" font-size="14" lengthAdjust="spacing" textLength="325" x="2811.5" y="305.0889">MongoDbCommand(connection:IConnection)</text><ellipse cx="2802.5" cy="318.0391" fill="#84BE84" rx="3" ry="3" style="stroke:#038048;stroke-width:1.0;"/><text fill="#FFFFFF" font-family="sans-serif" font-size="14" lengthAdjust="spacing" textLength="162" x="2811.5" y="321.3857">Delete(key:Key) : bool</text><ellipse cx="2802.5" cy="334.3359" fill="#84BE84" rx="3" ry="3" style="stroke:#038048;stroke-width:1.0;"/><text fill="#FFFFFF" font-family="sans-serif" font-size="14" lengthAdjust="spacing" textLength="214" x="2811.5" y="337.6826">GetAsync(key:Key) : Task&lt;T&gt;</text><ellipse cx="2802.5" cy="350.6328" fill="#84BE84" rx="3" ry="3" style="stroke:#038048;stroke-width:1.0;"/><text fill="#FFFFFF" font-family="sans-serif" font-size="14" lengthAdjust="spacing" textLength="125" x="2811.5" y="353.9795">GetAll() : List&lt;T&gt;</text><ellipse cx="2802.5" cy="366.9297" fill="#84BE84" rx="3" ry="3" style="stroke:#038048;stroke-width:1.0;"/><text fill="#FFFFFF" font-family="sans-serif" font-size="14" lengthAdjust="spacing" textLength="131" x="2811.5" y="370.2764">Insert(data:T) : int</text><ellipse cx="2802.5" cy="383.2266" fill="#84BE84" rx="3" ry="3" style="stroke:#038048;stroke-width:1.0;"/><text fill="#FFFFFF" font-family="sans-serif" font-size="14" lengthAdjust="spacing" textLength="250" x="2811.5" y="386.5732">Update(key:Key, newData:T) : bool</text><rect fill="#F24D5C" height="6" style="stroke:#C82930;stroke-width:1.0;" width="6" x="2799.5" y="396.5234"/><text fill="#FFFFFF" font-family="sans-serif" font-size="14" lengthAdjust="spacing" textLength="173" x="2811.5" y="402.8701">GetTableName() : string</text><rect fill="#F24D5C" height="6" style="stroke:#C82930;stroke-width:1.0;" width="6" x="2799.5" y="412.8203"/><text fill="#FFFFFF" font-family="sans-serif" font-size="14" lengthAdjust="spacing" textLength="259" x="2811.5" y="419.167">ToMongoValue(value:object) : string</text><rect fill="#F24D5C" height="6" style="stroke:#C82930;stroke-width:1.0;" width="6" x="2799.5" y="429.1172"/><text fill="#FFFFFF" font-family="sans-serif" font-size="14" lengthAdjust="spacing" textLength="252" x="2811.5" y="435.4639">ToMongoDocument(data:T) : string</text></g><!--class MongoDBConnection--><g id="elem_MongoDBConnection"><rect codeLine="42" fill="#313139" height="129.4844" id="MongoDBConnection" rx="2.5" ry="2.5" style="stroke:#E7E7E7;stroke-width:0.5;" width="331" x="1156.5" y="264.5"/><ellipse cx="1241.75" cy="280.5" fill="#2E5233" rx="11" ry="11" style="stroke:#E7E7E7;stroke-width:1.0;"/><path d="M1244.0938,276.1719 C1243.1563,275.7344 1242.5625,275.5938 1241.6875,275.5938 C1239.0625,275.5938 1237.0625,277.6719 1237.0625,280.3906 L1237.0625,281.5156 C1237.0625,284.0938 1239.1719,285.9844 1242.0625,285.9844 C1243.2813,285.9844 1244.4375,285.6875 1245.1875,285.1406 C1245.7656,284.7344 1246.0938,284.2813 1246.0938,283.8906 C1246.0938,283.4375 1245.7031,283.0469 1245.2344,283.0469 C1245.0156,283.0469 1244.8125,283.125 1244.625,283.3125 C1244.1719,283.7969 1244.1719,283.7969 1243.9844,283.8906 C1243.5625,284.1563 1242.875,284.2813 1242.1094,284.2813 C1240.0625,284.2813 1238.7656,283.1875 1238.7656,281.4844 L1238.7656,280.3906 C1238.7656,278.6094 1240.0156,277.2969 1241.75,277.2969 C1242.3281,277.2969 1242.9375,277.4531 1243.4063,277.7031 C1243.8906,277.9844 1244.0625,278.2031 1244.1563,278.6094 C1244.2188,279.0156 1244.25,279.1406 1244.3906,279.2656 C1244.5313,279.4063 1244.7656,279.5156 1244.9844,279.5156 C1245.25,279.5156 1245.5156,279.375 1245.6875,279.1563 C1245.7969,279 1245.8281,278.8125 1245.8281,278.3906 L1245.8281,276.9688 C1245.8281,276.5313 1245.8125,276.4063 1245.7188,276.25 C1245.5625,275.9844 1245.2813,275.8438 1244.9844,275.8438 C1244.6875,275.8438 1244.4844,275.9375 1244.2656,276.25 L1244.0938,276.1719 Z " fill="#FFFFFF"/><text fill="#FFFFFF" font-family="sans-serif" font-size="14" lengthAdjust="spacing" textLength="152" x="1262.25" y="285.3467">MongoDBConnection</text><line style="stroke:#E7E7E7;stroke-width:0.5;" x1="1157.5" x2="1486.5" y1="296.5" y2="296.5"/><line style="stroke:#E7E7E7;stroke-width:0.5;" x1="1157.5" x2="1486.5" y1="304.5" y2="304.5"/><ellipse cx="1167.5" cy="318.1484" fill="#84BE84" rx="3" ry="3" style="stroke:#038048;stroke-width:1.0;"/><text fill="#FFFFFF" font-family="sans-serif" font-size="14" lengthAdjust="spacing" textLength="286" x="1176.5" y="321.4951">Connect(connectionString:string) : void</text><ellipse cx="1167.5" cy="334.4453" fill="#84BE84" rx="3" ry="3" style="stroke:#038048;stroke-width:1.0;"/><text fill="#FFFFFF" font-family="sans-serif" font-size="14" lengthAdjust="spacing" textLength="134" x="1176.5" y="337.792">Disconnect() : void</text><ellipse cx="1167.5" cy="350.7422" fill="#84BE84" rx="3" ry="3" style="stroke:#038048;stroke-width:1.0;"/><text fill="#FFFFFF" font-family="sans-serif" font-size="14" lengthAdjust="spacing" textLength="219" x="1176.5" y="354.0889">Execute(command:string) : int</text><ellipse cx="1167.5" cy="367.0391" fill="#84BE84" rx="3" ry="3" style="stroke:#038048;stroke-width:1.0;"/><text fill="#FFFFFF" font-family="sans-serif" font-size="14" lengthAdjust="spacing" textLength="215" x="1176.5" y="370.3857">Execute(command:string) : T?</text><ellipse cx="1167.5" cy="383.3359" fill="#84BE84" rx="3" ry="3" style="stroke:#038048;stroke-width:1.0;"/><text fill="#FFFFFF" font-family="sans-serif" font-size="14" lengthAdjust="spacing" textLength="305" x="1176.5" y="386.6826">ExecuteAsync(command:string) : Task&lt;T&gt;</text></g><!--class MongoDbFactory--><g id="elem_MongoDbFactory"><rect codeLine="50" fill="#313139" height="64.2969" id="MongoDbFactory" rx="2.5" ry="2.5" style="stroke:#E7E7E7;stroke-width:0.5;" width="348" x="390" y="297"/><ellipse cx="498.25" cy="313" fill="#2E5233" rx="11" ry="11" style="stroke:#E7E7E7;stroke-width:1.0;"/><path d="M500.5938,308.6719 C499.6563,308.2344 499.0625,308.0938 498.1875,308.0938 C495.5625,308.0938 493.5625,310.1719 493.5625,312.8906 L493.5625,314.0156 C493.5625,316.5938 495.6719,318.4844 498.5625,318.4844 C499.7813,318.4844 500.9375,318.1875 501.6875,317.6406 C502.2656,317.2344 502.5938,316.7813 502.5938,316.3906 C502.5938,315.9375 502.2031,315.5469 501.7344,315.5469 C501.5156,315.5469 501.3125,315.625 501.125,315.8125 C500.6719,316.2969 500.6719,316.2969 500.4844,316.3906 C500.0625,316.6563 499.375,316.7813 498.6094,316.7813 C496.5625,316.7813 495.2656,315.6875 495.2656,313.9844 L495.2656,312.8906 C495.2656,311.1094 496.5156,309.7969 498.25,309.7969 C498.8281,309.7969 499.4375,309.9531 499.9063,310.2031 C500.3906,310.4844 500.5625,310.7031 500.6563,311.1094 C500.7188,311.5156 500.75,311.6406 500.8906,311.7656 C501.0313,311.9063 501.2656,312.0156 501.4844,312.0156 C501.75,312.0156 502.0156,311.875 502.1875,311.6563 C502.2969,311.5 502.3281,311.3125 502.3281,310.8906 L502.3281,309.4688 C502.3281,309.0313 502.3125,308.9063 502.2188,308.75 C502.0625,308.4844 501.7813,308.3438 501.4844,308.3438 C501.1875,308.3438 500.9844,308.4375 500.7656,308.75 L500.5938,308.6719 Z " fill="#FFFFFF"/><text fill="#FFFFFF" font-family="sans-serif" font-size="14" lengthAdjust="spacing" textLength="123" x="518.75" y="317.8467">MongoDbFactory</text><line style="stroke:#E7E7E7;stroke-width:0.5;" x1="391" x2="737" y1="329" y2="329"/><line style="stroke:#E7E7E7;stroke-width:0.5;" x1="391" x2="737" y1="337" y2="337"/><ellipse cx="401" cy="350.6484" fill="#84BE84" rx="3" ry="3" style="stroke:#038048;stroke-width:1.0;"/><text fill="#FFFFFF" font-family="sans-serif" font-size="14" lengthAdjust="spacing" textLength="322" x="410" y="353.9951">«override» CreateConnection() : IConnection</text></g><!--class PostgresConnection--><g id="elem_PostgresConnection"><rect codeLine="54" fill="#313139" height="259.8594" id="PostgresConnection" rx="2.5" ry="2.5" style="stroke:#E7E7E7;stroke-width:0.5;" width="684" x="1523" y="199"/><ellipse cx="1787.75" cy="215" fill="#2E5233" rx="11" ry="11" style="stroke:#E7E7E7;stroke-width:1.0;"/><path d="M1790.0938,210.6719 C1789.1563,210.2344 1788.5625,210.0938 1787.6875,210.0938 C1785.0625,210.0938 1783.0625,212.1719 1783.0625,214.8906 L1783.0625,216.0156 C1783.0625,218.5938 1785.1719,220.4844 1788.0625,220.4844 C1789.2813,220.4844 1790.4375,220.1875 1791.1875,219.6406 C1791.7656,219.2344 1792.0938,218.7813 1792.0938,218.3906 C1792.0938,217.9375 1791.7031,217.5469 1791.2344,217.5469 C1791.0156,217.5469 1790.8125,217.625 1790.625,217.8125 C1790.1719,218.2969 1790.1719,218.2969 1789.9844,218.3906 C1789.5625,218.6563 1788.875,218.7813 1788.1094,218.7813 C1786.0625,218.7813 1784.7656,217.6875 1784.7656,215.9844 L1784.7656,214.8906 C1784.7656,213.1094 1786.0156,211.7969 1787.75,211.7969 C1788.3281,211.7969 1788.9375,211.9531 1789.4063,212.2031 C1789.8906,212.4844 1790.0625,212.7031 1790.1563,213.1094 C1790.2188,213.5156 1790.25,213.6406 1790.3906,213.7656 C1790.5313,213.9063 1790.7656,214.0156 1790.9844,214.0156 C1791.25,214.0156 1791.5156,213.875 1791.6875,213.6563 C1791.7969,213.5 1791.8281,213.3125 1791.8281,212.8906 L1791.8281,211.4688 C1791.8281,211.0313 1791.8125,210.9063 1791.7188,210.75 C1791.5625,210.4844 1791.2813,210.3438 1790.9844,210.3438 C1790.6875,210.3438 1790.4844,210.4375 1790.2656,210.75 L1790.0938,210.6719 Z " fill="#FFFFFF"/><text fill="#FFFFFF" font-family="sans-serif" font-size="14" lengthAdjust="spacing" textLength="146" x="1808.25" y="219.8467">PostgresConnection</text><line style="stroke:#E7E7E7;stroke-width:0.5;" x1="1524" x2="2206" y1="231" y2="231"/><rect fill="none" height="6" style="stroke:#C82930;stroke-width:1.0;" width="6" x="1531" y="241.6484"/><text fill="#FFFFFF" font-family="sans-serif" font-size="14" lengthAdjust="spacing" textLength="658" x="1543" y="247.9951">«const» CONNECTION_STRING_ERROR : string = "Connections string postgresql was empty"</text><rect fill="none" height="6" style="stroke:#C82930;stroke-width:1.0;" width="6" x="1531" y="257.9453"/><text fill="#FFFFFF" font-family="sans-serif" font-size="14" lengthAdjust="spacing" textLength="549" x="1543" y="264.292">«const» CONNECTION_ERROR : string = "Postgresql connection unavailable!"</text><rect fill="none" height="6" style="stroke:#C82930;stroke-width:1.0;" width="6" x="1531" y="274.2422"/><text fill="#FFFFFF" font-family="sans-serif" font-size="14" lengthAdjust="spacing" textLength="628" x="1543" y="280.5889">«const» POSTGRES_DISCONNECTED_MESSAGE : string = "Postgresql was disconnected"</text><rect fill="none" height="6" style="stroke:#C82930;stroke-width:1.0;" width="6" x="1531" y="290.5391"/><text fill="#FFFFFF" font-family="sans-serif" font-size="14" lengthAdjust="spacing" textLength="615" x="1543" y="296.8857">«const» POSTGRES_CONNECTED_MESSAGE : string = "Postgresql was connected {0}"</text><text fill="#FFFFFF" font-family="sans-serif" font-size="14" lengthAdjust="spacing" textLength="205" x="1543" y="313.1826">«readonly» - logger : ILogger</text><ellipse cx="1534" cy="326.1328" fill="none" rx="3" ry="3" style="stroke:#038048;stroke-width:1.0;"/><text fill="#FFFFFF" font-family="sans-serif" font-size="14" lengthAdjust="spacing" textLength="309" x="1543" y="329.4795">ConnectionState : bool «get» «set» = false</text><line style="stroke:#E7E7E7;stroke-width:0.5;" x1="1524" x2="2206" y1="336.7813" y2="336.7813"/><ellipse cx="1534" cy="350.4297" fill="#84BE84" rx="3" ry="3" style="stroke:#038048;stroke-width:1.0;"/><text fill="#FFFFFF" font-family="sans-serif" font-size="14" lengthAdjust="spacing" textLength="261" x="1543" y="353.7764">PostgresConnection(logger:ILogger)</text><ellipse cx="1534" cy="366.7266" fill="#84BE84" rx="3" ry="3" style="stroke:#038048;stroke-width:1.0;"/><text fill="#FFFFFF" font-family="sans-serif" font-size="14" lengthAdjust="spacing" textLength="286" x="1543" y="370.0732">Connect(connectionString:string) : void</text><ellipse cx="1534" cy="383.0234" fill="#84BE84" rx="3" ry="3" style="stroke:#038048;stroke-width:1.0;"/><text fill="#FFFFFF" font-family="sans-serif" font-size="14" lengthAdjust="spacing" textLength="134" x="1543" y="386.3701">Disconnect() : void</text><ellipse cx="1534" cy="399.3203" fill="#84BE84" rx="3" ry="3" style="stroke:#038048;stroke-width:1.0;"/><text fill="#FFFFFF" font-family="sans-serif" font-size="14" lengthAdjust="spacing" textLength="219" x="1543" y="402.667">Execute(command:string) : int</text><ellipse cx="1534" cy="415.6172" fill="#84BE84" rx="3" ry="3" style="stroke:#038048;stroke-width:1.0;"/><text fill="#FFFFFF" font-family="sans-serif" font-size="14" lengthAdjust="spacing" textLength="215" x="1543" y="418.9639">Execute(command:string) : T?</text><ellipse cx="1534" cy="431.9141" fill="#84BE84" rx="3" ry="3" style="stroke:#038048;stroke-width:1.0;"/><text fill="#FFFFFF" font-family="sans-serif" font-size="14" lengthAdjust="spacing" textLength="305" x="1543" y="435.2607">ExecuteAsync(command:string) : Task&lt;T&gt;</text><rect fill="#F24D5C" height="6" style="stroke:#C82930;stroke-width:1.0;" width="6" x="1531" y="445.2109"/><text fill="#FFFFFF" font-family="sans-serif" font-size="14" lengthAdjust="spacing" textLength="212" x="1543" y="451.5576">ThrowIfNotConnected() : void</text></g><!--class PostgresDbCommand`2--><g id="elem_PostgresDbCommand`2"><rect codeLine="70" fill="#313139" height="80.5938" id="PostgresDbCommand`2" rx="2.5" ry="2.5" style="stroke:#E7E7E7;stroke-width:0.5;" width="366" x="3160" y="519"/><ellipse cx="3234.25" cy="535" fill="#2E5233" rx="11" ry="11" style="stroke:#E7E7E7;stroke-width:1.0;"/><path d="M3236.5938,530.6719 C3235.6563,530.2344 3235.0625,530.0938 3234.1875,530.0938 C3231.5625,530.0938 3229.5625,532.1719 3229.5625,534.8906 L3229.5625,536.0156 C3229.5625,538.5938 3231.6719,540.4844 3234.5625,540.4844 C3235.7813,540.4844 3236.9375,540.1875 3237.6875,539.6406 C3238.2656,539.2344 3238.5938,538.7813 3238.5938,538.3906 C3238.5938,537.9375 3238.2031,537.5469 3237.7344,537.5469 C3237.5156,537.5469 3237.3125,537.625 3237.125,537.8125 C3236.6719,538.2969 3236.6719,538.2969 3236.4844,538.3906 C3236.0625,538.6563 3235.375,538.7813 3234.6094,538.7813 C3232.5625,538.7813 3231.2656,537.6875 3231.2656,535.9844 L3231.2656,534.8906 C3231.2656,533.1094 3232.5156,531.7969 3234.25,531.7969 C3234.8281,531.7969 3235.4375,531.9531 3235.9063,532.2031 C3236.3906,532.4844 3236.5625,532.7031 3236.6563,533.1094 C3236.7188,533.5156 3236.75,533.6406 3236.8906,533.7656 C3237.0313,533.9063 3237.2656,534.0156 3237.4844,534.0156 C3237.75,534.0156 3238.0156,533.875 3238.1875,533.6563 C3238.2969,533.5 3238.3281,533.3125 3238.3281,532.8906 L3238.3281,531.4688 C3238.3281,531.0313 3238.3125,530.9063 3238.2188,530.75 C3238.0625,530.4844 3237.7813,530.3438 3237.4844,530.3438 C3237.1875,530.3438 3236.9844,530.4375 3236.7656,530.75 L3236.5938,530.6719 Z " fill="#FFFFFF"/><text fill="#FFFFFF" font-family="sans-serif" font-size="14" lengthAdjust="spacing" textLength="172" x="3254.75" y="539.8467">PostgresDbCommand`2</text><rect fill="#FFFFFF" height="15.9688" style="stroke:#E7E7E7;stroke-width:1.0;stroke-dasharray:2.0,2.0;" width="35" x="3494" y="516"/><text fill="#000000" font-family="sans-serif" font-size="12" font-style="italic" lengthAdjust="spacing" textLength="33" x="3495" y="528.1387">T,Key</text><line style="stroke:#E7E7E7;stroke-width:0.5;" x1="3161" x2="3525" y1="551" y2="551"/><rect fill="none" height="6" style="stroke:#C82930;stroke-width:1.0;" width="6" x="3168" y="561.6484"/><text fill="#FFFFFF" font-family="sans-serif" font-size="14" lengthAdjust="spacing" textLength="181" x="3180" y="567.9951">connection : IConnection</text><line style="stroke:#E7E7E7;stroke-width:0.5;" x1="3161" x2="3525" y1="575.2969" y2="575.2969"/><ellipse cx="3171" cy="588.9453" fill="#84BE84" rx="3" ry="3" style="stroke:#038048;stroke-width:1.0;"/><text fill="#FFFFFF" font-family="sans-serif" font-size="14" lengthAdjust="spacing" textLength="340" x="3180" y="592.292">PostgresDbCommand(connection:IConnection)</text></g><!--class SqlDbCommand`2--><g id="elem_SqlDbCommand`2"><rect codeLine="96" fill="#313139" height="259.8594" id="SqlDbCommand`2" rx="2.5" ry="2.5" style="stroke:#E7E7E7;stroke-width:0.5;" width="330" x="3178" y="199"/><ellipse cx="3254.75" cy="215" fill="#2E5233" rx="11" ry="11" style="stroke:#E7E7E7;stroke-width:1.0;"/><path d="M3257.0938,210.6719 C3256.1563,210.2344 3255.5625,210.0938 3254.6875,210.0938 C3252.0625,210.0938 3250.0625,212.1719 3250.0625,214.8906 L3250.0625,216.0156 C3250.0625,218.5938 3252.1719,220.4844 3255.0625,220.4844 C3256.2813,220.4844 3257.4375,220.1875 3258.1875,219.6406 C3258.7656,219.2344 3259.0938,218.7813 3259.0938,218.3906 C3259.0938,217.9375 3258.7031,217.5469 3258.2344,217.5469 C3258.0156,217.5469 3257.8125,217.625 3257.625,217.8125 C3257.1719,218.2969 3257.1719,218.2969 3256.9844,218.3906 C3256.5625,218.6563 3255.875,218.7813 3255.1094,218.7813 C3253.0625,218.7813 3251.7656,217.6875 3251.7656,215.9844 L3251.7656,214.8906 C3251.7656,213.1094 3253.0156,211.7969 3254.75,211.7969 C3255.3281,211.7969 3255.9375,211.9531 3256.4063,212.2031 C3256.8906,212.4844 3257.0625,212.7031 3257.1563,213.1094 C3257.2188,213.5156 3257.25,213.6406 3257.3906,213.7656 C3257.5313,213.9063 3257.7656,214.0156 3257.9844,214.0156 C3258.25,214.0156 3258.5156,213.875 3258.6875,213.6563 C3258.7969,213.5 3258.8281,213.3125 3258.8281,212.8906 L3258.8281,211.4688 C3258.8281,211.0313 3258.8125,210.9063 3258.7188,210.75 C3258.5625,210.4844 3258.2813,210.3438 3257.9844,210.3438 C3257.6875,210.3438 3257.4844,210.4375 3257.2656,210.75 L3257.0938,210.6719 Z " fill="#FFFFFF"/><text fill="#FFFFFF" font-family="sans-serif" font-size="14" lengthAdjust="spacing" textLength="131" x="3275.25" y="219.8467">SqlDbCommand`2</text><rect fill="#FFFFFF" height="15.9688" style="stroke:#E7E7E7;stroke-width:1.0;stroke-dasharray:2.0,2.0;" width="35" x="3476" y="196"/><text fill="#000000" font-family="sans-serif" font-size="12" font-style="italic" lengthAdjust="spacing" textLength="33" x="3477" y="208.1387">T,Key</text><line style="stroke:#E7E7E7;stroke-width:0.5;" x1="3179" x2="3507" y1="231" y2="231"/><rect fill="none" height="6" style="stroke:#C82930;stroke-width:1.0;" width="6" x="3186" y="241.6484"/><text fill="#FFFFFF" font-family="sans-serif" font-size="14" lengthAdjust="spacing" textLength="181" x="3198" y="247.9951">connection : IConnection</text><ellipse cx="3189" cy="260.9453" fill="none" rx="3" ry="3" style="stroke:#038048;stroke-width:1.0;"/><text fill="#FFFFFF" font-family="sans-serif" font-size="14" lengthAdjust="spacing" textLength="265" x="3198" y="264.292">«virtual» GetKey : string «get» = "id"</text><line style="stroke:#E7E7E7;stroke-width:0.5;" x1="3179" x2="3507" y1="271.5938" y2="271.5938"/><ellipse cx="3189" cy="285.2422" fill="#84BE84" rx="3" ry="3" style="stroke:#038048;stroke-width:1.0;"/><text fill="#FFFFFF" font-family="sans-serif" font-size="14" lengthAdjust="spacing" textLength="299" x="3198" y="288.5889">SqlDbCommand(connection:IConnection)</text><ellipse cx="3189" cy="301.5391" fill="#84BE84" rx="3" ry="3" style="stroke:#038048;stroke-width:1.0;"/><text fill="#FFFFFF" font-family="sans-serif" font-size="14" lengthAdjust="spacing" textLength="162" x="3198" y="304.8857">Delete(key:Key) : bool</text><ellipse cx="3189" cy="317.8359" fill="#84BE84" rx="3" ry="3" style="stroke:#038048;stroke-width:1.0;"/><text fill="#FFFFFF" font-family="sans-serif" font-size="14" lengthAdjust="spacing" textLength="214" x="3198" y="321.1826">GetAsync(key:Key) : Task&lt;T&gt;</text><ellipse cx="3189" cy="334.1328" fill="#84BE84" rx="3" ry="3" style="stroke:#038048;stroke-width:1.0;"/><text fill="#FFFFFF" font-family="sans-serif" font-size="14" lengthAdjust="spacing" textLength="125" x="3198" y="337.4795">GetAll() : List&lt;T&gt;</text><ellipse cx="3189" cy="350.4297" fill="#84BE84" rx="3" ry="3" style="stroke:#038048;stroke-width:1.0;"/><text fill="#FFFFFF" font-family="sans-serif" font-size="14" lengthAdjust="spacing" textLength="131" x="3198" y="353.7764">Insert(data:T) : int</text><ellipse cx="3189" cy="366.7266" fill="#84BE84" rx="3" ry="3" style="stroke:#038048;stroke-width:1.0;"/><text fill="#FFFFFF" font-family="sans-serif" font-size="14" lengthAdjust="spacing" textLength="250" x="3198" y="370.0732">Update(key:Key, newData:T) : bool</text><polygon fill="#FFFF44" points="3189,378.0234,3193,382.0234,3189,386.0234,3185,382.0234" style="stroke:#B38D22;stroke-width:1.0;"/><text fill="#FFFFFF" font-family="sans-serif" font-size="14" lengthAdjust="spacing" textLength="173" x="3198" y="386.3701">GetTableName() : string</text><polygon fill="#FFFF44" points="3189,394.3203,3193,398.3203,3189,402.3203,3185,398.3203" style="stroke:#B38D22;stroke-width:1.0;"/><text fill="#FFFFFF" font-family="sans-serif" font-size="14" lengthAdjust="spacing" textLength="241" x="3198" y="402.667">GetInsertColumns(data:T) : string</text><polygon fill="#FFFF44" points="3189,410.6172,3193,414.6172,3189,418.6172,3185,414.6172" style="stroke:#B38D22;stroke-width:1.0;"/><text fill="#FFFFFF" font-family="sans-serif" font-size="14" lengthAdjust="spacing" textLength="247" x="3198" y="418.9639">ForUpdateColumns(data:T) : string</text><polygon fill="#FFFF44" points="3189,426.9141,3193,430.9141,3189,434.9141,3185,430.9141" style="stroke:#B38D22;stroke-width:1.0;"/><text fill="#FFFFFF" font-family="sans-serif" font-size="14" lengthAdjust="spacing" text-decoration="underline" textLength="304" x="3198" y="435.2607">GetValue(data:T, p:PropertyInfo) : object?</text><polygon fill="#FFFF44" points="3189,443.2109,3193,447.2109,3189,451.2109,3185,447.2109" style="stroke:#B38D22;stroke-width:1.0;"/><text fill="#FFFFFF" font-family="sans-serif" font-size="14" lengthAdjust="spacing" text-decoration="underline" textLength="201" x="3198" y="451.5576">GetValue(key:Key) : object?</text></g><!--class PostgresDbFactory--><g id="elem_PostgresDbFactory"><rect codeLine="75" fill="#313139" height="96.8906" id="PostgresDbFactory" rx="2.5" ry="2.5" style="stroke:#E7E7E7;stroke-width:0.5;" width="348" x="773" y="280.5"/><ellipse cx="873.75" cy="296.5" fill="#2E5233" rx="11" ry="11" style="stroke:#E7E7E7;stroke-width:1.0;"/><path d="M876.0938,292.1719 C875.1563,291.7344 874.5625,291.5938 873.6875,291.5938 C871.0625,291.5938 869.0625,293.6719 869.0625,296.3906 L869.0625,297.5156 C869.0625,300.0938 871.1719,301.9844 874.0625,301.9844 C875.2813,301.9844 876.4375,301.6875 877.1875,301.1406 C877.7656,300.7344 878.0938,300.2813 878.0938,299.8906 C878.0938,299.4375 877.7031,299.0469 877.2344,299.0469 C877.0156,299.0469 876.8125,299.125 876.625,299.3125 C876.1719,299.7969 876.1719,299.7969 875.9844,299.8906 C875.5625,300.1563 874.875,300.2813 874.1094,300.2813 C872.0625,300.2813 870.7656,299.1875 870.7656,297.4844 L870.7656,296.3906 C870.7656,294.6094 872.0156,293.2969 873.75,293.2969 C874.3281,293.2969 874.9375,293.4531 875.4063,293.7031 C875.8906,293.9844 876.0625,294.2031 876.1563,294.6094 C876.2188,295.0156 876.25,295.1406 876.3906,295.2656 C876.5313,295.4063 876.7656,295.5156 876.9844,295.5156 C877.25,295.5156 877.5156,295.375 877.6875,295.1563 C877.7969,295 877.8281,294.8125 877.8281,294.3906 L877.8281,292.9688 C877.8281,292.5313 877.8125,292.4063 877.7188,292.25 C877.5625,291.9844 877.2813,291.8438 876.9844,291.8438 C876.6875,291.8438 876.4844,291.9375 876.2656,292.25 L876.0938,292.1719 Z " fill="#FFFFFF"/><text fill="#FFFFFF" font-family="sans-serif" font-size="14" lengthAdjust="spacing" textLength="138" x="894.25" y="301.3467">PostgresDbFactory</text><line style="stroke:#E7E7E7;stroke-width:0.5;" x1="774" x2="1120" y1="312.5" y2="312.5"/><text fill="#FFFFFF" font-family="sans-serif" font-size="14" lengthAdjust="spacing" textLength="205" x="779" y="329.4951">«readonly» - logger : ILogger</text><line style="stroke:#E7E7E7;stroke-width:0.5;" x1="774" x2="1120" y1="336.7969" y2="336.7969"/><ellipse cx="784" cy="350.4453" fill="#84BE84" rx="3" ry="3" style="stroke:#038048;stroke-width:1.0;"/><text fill="#FFFFFF" font-family="sans-serif" font-size="14" lengthAdjust="spacing" textLength="253" x="793" y="353.792">PostgresDbFactory(logger:ILogger)</text><ellipse cx="784" cy="366.7422" fill="#84BE84" rx="3" ry="3" style="stroke:#038048;stroke-width:1.0;"/><text fill="#FFFFFF" font-family="sans-serif" font-size="14" lengthAdjust="spacing" textLength="322" x="793" y="370.0889">«override» CreateConnection() : IConnection</text></g><!--class SqlConnection--><g id="elem_SqlConnection"><rect codeLine="81" fill="#313139" height="243.5625" id="SqlConnection" rx="2.5" ry="2.5" style="stroke:#E7E7E7;stroke-width:0.5;" width="514" x="2242" y="207"/><ellipse cx="2442.25" cy="223" fill="#2E5233" rx="11" ry="11" style="stroke:#E7E7E7;stroke-width:1.0;"/><path d="M2444.5938,218.6719 C2443.6563,218.2344 2443.0625,218.0938 2442.1875,218.0938 C2439.5625,218.0938 2437.5625,220.1719 2437.5625,222.8906 L2437.5625,224.0156 C2437.5625,226.5938 2439.6719,228.4844 2442.5625,228.4844 C2443.7813,228.4844 2444.9375,228.1875 2445.6875,227.6406 C2446.2656,227.2344 2446.5938,226.7813 2446.5938,226.3906 C2446.5938,225.9375 2446.2031,225.5469 2445.7344,225.5469 C2445.5156,225.5469 2445.3125,225.625 2445.125,225.8125 C2444.6719,226.2969 2444.6719,226.2969 2444.4844,226.3906 C2444.0625,226.6563 2443.375,226.7813 2442.6094,226.7813 C2440.5625,226.7813 2439.2656,225.6875 2439.2656,223.9844 L2439.2656,222.8906 C2439.2656,221.1094 2440.5156,219.7969 2442.25,219.7969 C2442.8281,219.7969 2443.4375,219.9531 2443.9063,220.2031 C2444.3906,220.4844 2444.5625,220.7031 2444.6563,221.1094 C2444.7188,221.5156 2444.75,221.6406 2444.8906,221.7656 C2445.0313,221.9063 2445.2656,222.0156 2445.4844,222.0156 C2445.75,222.0156 2446.0156,221.875 2446.1875,221.6563 C2446.2969,221.5 2446.3281,221.3125 2446.3281,220.8906 L2446.3281,219.4688 C2446.3281,219.0313 2446.3125,218.9063 2446.2188,218.75 C2446.0625,218.4844 2445.7813,218.3438 2445.4844,218.3438 C2445.1875,218.3438 2444.9844,218.4375 2444.7656,218.75 L2444.5938,218.6719 Z " fill="#FFFFFF"/><text fill="#FFFFFF" font-family="sans-serif" font-size="14" lengthAdjust="spacing" textLength="105" x="2462.75" y="227.8467">SqlConnection</text><line style="stroke:#E7E7E7;stroke-width:0.5;" x1="2243" x2="2755" y1="239" y2="239"/><rect fill="none" height="6" style="stroke:#C82930;stroke-width:1.0;" width="6" x="2250" y="249.6484"/><text fill="#FFFFFF" font-family="sans-serif" font-size="14" lengthAdjust="spacing" textLength="113" x="2262" y="255.9951">logger : ILogger</text><rect fill="none" height="6" style="stroke:#C82930;stroke-width:1.0;" width="6" x="2250" y="265.9453"/><text fill="#FFFFFF" font-family="sans-serif" font-size="14" lengthAdjust="spacing" textLength="488" x="2262" y="272.292">«const» CONNECTION_MESSAGE : string = "SQL was connected {0}"</text><rect fill="none" height="6" style="stroke:#C82930;stroke-width:1.0;" width="6" x="2250" y="282.2422"/><text fill="#FFFFFF" font-family="sans-serif" font-size="14" lengthAdjust="spacing" textLength="476" x="2262" y="288.5889">«const» DISCONNECT_MESSAGE : string = "SQL was disconnected"</text><rect fill="none" height="6" style="stroke:#C82930;stroke-width:1.0;" width="6" x="2250" y="298.5391"/><text fill="#FFFFFF" font-family="sans-serif" font-size="14" lengthAdjust="spacing" textLength="471" x="2262" y="304.8857">«const» CONNECTION_ERROR : string = "Connection unavailable!"</text><ellipse cx="2253" cy="317.8359" fill="none" rx="3" ry="3" style="stroke:#038048;stroke-width:1.0;"/><text fill="#FFFFFF" font-family="sans-serif" font-size="14" lengthAdjust="spacing" textLength="183" x="2262" y="321.1826">State : string «get» «set»</text><line style="stroke:#E7E7E7;stroke-width:0.5;" x1="2243" x2="2755" y1="328.4844" y2="328.4844"/><ellipse cx="2253" cy="342.1328" fill="#84BE84" rx="3" ry="3" style="stroke:#038048;stroke-width:1.0;"/><text fill="#FFFFFF" font-family="sans-serif" font-size="14" lengthAdjust="spacing" textLength="220" x="2262" y="345.4795">SqlConnection(logger:ILogger)</text><ellipse cx="2253" cy="358.4297" fill="#84BE84" rx="3" ry="3" style="stroke:#038048;stroke-width:1.0;"/><text fill="#FFFFFF" font-family="sans-serif" font-size="14" lengthAdjust="spacing" textLength="286" x="2262" y="361.7764">Connect(connectionString:string) : void</text><ellipse cx="2253" cy="374.7266" fill="#84BE84" rx="3" ry="3" style="stroke:#038048;stroke-width:1.0;"/><text fill="#FFFFFF" font-family="sans-serif" font-size="14" lengthAdjust="spacing" textLength="134" x="2262" y="378.0732">Disconnect() : void</text><ellipse cx="2253" cy="391.0234" fill="#84BE84" rx="3" ry="3" style="stroke:#038048;stroke-width:1.0;"/><text fill="#FFFFFF" font-family="sans-serif" font-size="14" lengthAdjust="spacing" textLength="219" x="2262" y="394.3701">Execute(command:string) : int</text><ellipse cx="2253" cy="407.3203" fill="#84BE84" rx="3" ry="3" style="stroke:#038048;stroke-width:1.0;"/><text fill="#FFFFFF" font-family="sans-serif" font-size="14" lengthAdjust="spacing" textLength="215" x="2262" y="410.667">Execute(command:string) : T?</text><rect fill="#F24D5C" height="6" style="stroke:#C82930;stroke-width:1.0;" width="6" x="2250" y="420.6172"/><text fill="#FFFFFF" font-family="sans-serif" font-size="14" lengthAdjust="spacing" textLength="212" x="2262" y="426.9639">ThrowIfNotConnected() : void</text><ellipse cx="2253" cy="439.9141" fill="#84BE84" rx="3" ry="3" style="stroke:#038048;stroke-width:1.0;"/><text fill="#FFFFFF" font-family="sans-serif" font-size="14" lengthAdjust="spacing" textLength="305" x="2262" y="443.2607">ExecuteAsync(command:string) : Task&lt;T&gt;</text></g><!--reverse link DatabaseConnectionFactory to SqlDbFactory--><g id="link_DatabaseConnectionFactory_SqlDbFactory"><path codeLine="6" d="M499.6967,116.3426 C460.7877,141.1346 420.313,167.153 372,199 C331.576,225.648 286.695,255.924 250.601,280.446 " fill="none" id="DatabaseConnectionFactory-backto-SqlDbFactory" style="stroke:#E7E7E7;stroke-width:1.0;"/><polygon fill="none" points="514.877,106.67,496.4725,111.2825,502.9209,121.4027,514.877,106.67" style="stroke:#E7E7E7;stroke-width:1.0;"/></g><!--reverse link IDbCommand`2 to MongoDbCommand`2--><g id="link_IDbCommand`2_MongoDbCommand`2"><path codeLine="41" d="M3096.8093,153.6528 C3079.6193,176.7368 3070.41,189.114 3051.02,215.158 " fill="none" id="IDbCommand`2-backto-MongoDbCommand`2" style="stroke:#E7E7E7;stroke-width:1.0;"/><polygon fill="none" points="3107.56,139.216,3091.997,150.0693,3101.6216,157.2364,3107.56,139.216" style="stroke:#E7E7E7;stroke-width:1.0;"/><text fill="#FFFFFF" font-family="sans-serif" font-size="13" lengthAdjust="spacing" textLength="56" x="3042.8373" y="159.6125">&lt;T,Key&gt;</text></g><!--reverse link IConnection to MongoDBConnection--><g id="link_IConnection_MongoDBConnection"><path codeLine="49" d="M1689.3231,124.9518 C1625.3931,145.3678 1569.13,166.823 1506,199 C1470.2,217.248 1433.42,241.695 1402.25,264.398 " fill="none" id="IConnection-backto-MongoDBConnection" style="stroke:#E7E7E7;stroke-width:1.0;"/><polygon fill="none" points="1706.47,119.476,1687.4978,119.2362,1691.1484,130.6675,1706.47,119.476" style="stroke:#E7E7E7;stroke-width:1.0;"/></g><!--reverse link DatabaseConnectionFactory to MongoDbFactory--><g id="link_DatabaseConnectionFactory_MongoDbFactory"><path codeLine="53" d="M564,124.715 C564,173.271 564,248.344 564,296.857 " fill="none" id="DatabaseConnectionFactory-backto-MongoDbFactory" style="stroke:#E7E7E7;stroke-width:1.0;"/><polygon fill="none" points="564,106.715,558,124.715,570,124.715,564,106.715" style="stroke:#E7E7E7;stroke-width:1.0;"/></g><!--reverse link IConnection to PostgresConnection--><g id="link_IConnection_PostgresConnection"><path codeLine="69" d="M1865,157.216 C1865,175.478 1865,178.076 1865,198.78 " fill="none" id="IConnection-backto-PostgresConnection" style="stroke:#E7E7E7;stroke-width:1.0;"/><polygon fill="none" points="1865,139.216,1859,157.216,1871,157.216,1865,139.216" style="stroke:#E7E7E7;stroke-width:1.0;"/></g><!--reverse link SqlDbCommand`2 to PostgresDbCommand`2--><g id="link_SqlDbCommand`2_PostgresDbCommand`2"><path codeLine="74" d="M3343,477.273 C3343,498.883 3343,501.7632 3343,518.7483 " fill="none" id="SqlDbCommand`2-backto-PostgresDbCommand`2" style="stroke:#E7E7E7;stroke-width:1.0;"/><polygon fill="none" points="3343,459.273,3337,477.273,3349,477.273,3343,459.273" style="stroke:#E7E7E7;stroke-width:1.0;"/><text fill="#FFFFFF" font-family="sans-serif" font-size="13" lengthAdjust="spacing" textLength="56" x="3285.4688" y="478.8818">&lt;T,Key&gt;</text></g><!--reverse link DatabaseConnectionFactory to PostgresDbFactory--><g id="link_DatabaseConnectionFactory_PostgresDbFactory"><path codeLine="80" d="M627.9744,116.4585 C666.6584,141.2865 706.864,167.271 755,199 C795.403,225.632 840.31,255.774 876.529,280.221 " fill="none" id="DatabaseConnectionFactory-backto-PostgresDbFactory" style="stroke:#E7E7E7;stroke-width:1.0;"/><polygon fill="none" points="612.826,106.736,624.7336,121.5079,631.2152,111.409,612.826,106.736" style="stroke:#E7E7E7;stroke-width:1.0;"/></g><!--reverse link IConnection to SqlConnection--><g id="link_IConnection_SqlConnection"><path codeLine="95" d="M2040.7237,131.455 C2103.9437,152.561 2159.94,172.618 2225,199 C2231.33,201.569 2237.73,204.209 2244.17,206.907 " fill="none" id="IConnection-backto-SqlConnection" style="stroke:#E7E7E7;stroke-width:1.0;"/><polygon fill="none" points="2023.65,125.755,2038.8236,137.1463,2042.6237,125.7638,2023.65,125.755" style="stroke:#E7E7E7;stroke-width:1.0;"/></g><!--reverse link IDbCommand`2 to SqlDbCommand`2--><g id="link_IDbCommand`2_SqlDbCommand`2"><path codeLine="111" d="M3213.1911,153.6525 C3226.7911,171.9145 3231.37,178.076 3246.79,198.78 " fill="none" id="IDbCommand`2-backto-SqlDbCommand`2" style="stroke:#E7E7E7;stroke-width:1.0;"/><polygon fill="none" points="3202.44,139.216,3208.3789,157.2362,3218.0033,150.0688,3202.44,139.216" style="stroke:#E7E7E7;stroke-width:1.0;"/><text fill="#FFFFFF" font-family="sans-serif" font-size="13" lengthAdjust="spacing" textLength="56" x="3148.6878" y="159.6125">&lt;T,Key&gt;</text></g><!--SRC=[rLPTRzem57tdLtXKcb9HfAtINhACgaieYjO28zbUcPCObjN4D3QqYF7VvyGESH8IgBfDQX_QnZu-zyFtN5yVGqg1yu0jxmRwZCGRi6q1_jC5cCpdA0Owi6_J_zBbJW6h2Omk4USIOXXaZU8u352l1ymOGOPC4aN8Po69jFE4ClzkxLeMPD23L05blXY_kzs2nLOBUfJ5_0FugUlrPxVIcsrsOdUABs74K3o3FbBN9PTSqFpzXiFYC9hhDFsJaAr96AHOAwGIfXNM-q_8Np74EHOB60NAKMxv2C9Lzw_f9l8FWI2zDznU8PIsRNccGFwuR1lknHUqwScWx8YYc6a1pwFkgdvyM_8rfDsZZSxX5o12ZzOUv162HPm8ennLs1eW9fnKDZFlidsCq_JSXfILdPP59Tta7nRoLlC34QUvtRL4FRJlI3GdzU5sGNvxfSlFYdSTncm5CQzTxY4_oc726D-R8yRNFu7sD0pQyaJHeb8TkiAUQQCXNvsZ6UiSofdOgBt6peaNsKsuNUXXD8GBb5eGKSjTbwHnVeTuXRHrybidtYyUN1tI8lvgWIBL9mdRjOe52R8xQWl1L-zGNgvO_rmHPkTPqkpKYhDpWZoRCEvL4N9SesgJIMElX5W8tIitjx_SQejMfEaneMmU8rf9UvURvtcaYIJCqN3ODrrxD9mwxiGU3gRzoMGqoRN3DPCJq6nrARaVC7Y45A35actQJUHLrd5EeKXx5S4r375Ips-gXEEHumucVMTgsOuaxrlJkxxZN0_wTUo9Wy6-Sb3GGFiipZqXsBvxU_R-yiD7mMmO_3u34k4DfwvzZqsbuldjIqdlMvLXKDcoPX1J90zLhxJcAN-Tkf9zw6TC7ktPa30pox2cl1SLwLMJahqfsSuBdfKAHUqxmRjZEl4qzCT3_fJ4McuLfnLJvVJ_cV0gPcKmF0y7civ1tslQnI7vELzl6tMdKkNzeP6gkIqqjY-pgMVnSLkAkZI1I5ddC_dhKl8HSRxq4Ita8nDnILJ_PYpCfqBLt6kT2SyQPy9qLzWm2Luj8beTzGJkXiJ2u17Sbl9g3_rTGYm6JG6y04jz79CbjxInenb93ehXywhsf9Ak37fqxYoLo1y0]--></g></svg>